<?xml version="1.0" standalone="no"?><!DOCTYPE svg PUBLIC "-//W3C//DTD SVG 1.1//EN" "http://www.w3.org/Graphics/SVG/1.1/DTD/svg11.dtd"><svg class="icon" width="200px" height="200.00px" viewBox="0 0 1024 1024" version="1.1" xmlns="http://www.w3.org/2000/svg"><path d="M887.2 326.4L582.4 129.6c-21-12.6-44-19-68.4-19-24.4 0-47.4 6.4-69.2 19.5L135.7 326.3c-11.4 7.2-18.2 19.9-18 33.4 0.2 13.5 7.4 25.9 19.1 32.8l3.6 2.1 1.1 299.5 278.4 172.1 38.4 20.8 78.9 11 50.4-30.7 276.2-158.9 18.6-50.4s-8.8-97.5-8.8-105.2V419.1c0-4.9-1.1-11.6-2.4-17.9l14.7-8.7c11.6-6.9 18.8-19.2 19.1-32.7 0.2-13.4-6.5-26.1-17.8-33.4zM465.6 162.9c13.4-8.1 29.6-13.4 48.4-13.4 18.8 0 34.9 5.4 48.4 13.4l303.7 196.2-295.6 174.7c-18.8 10.7-37.6 16.1-59.1 16.1s-40.3-5.4-59.1-16.1L156.5 359.1l309.1-196.2z" fill="#3259CE" /><path d="M907.6 434.5c0.1-10.5-15.4 8.2-15.4 18.2l-2.4 39.8c0 6.6-3.6 12.7-9.6 16.1L573 683.9c-17 9.3-34 14-53.4 14s-36.4-4.7-53.4-14L174.9 518.4l-32.2-18.3c-5.9-3.4-9.6-9.5-9.6-16.1l-2.6-40.8c0-10.1 23.5-18.2 13-18.2s-5 9.6-5 19.6l-13.9 57.1c0 4-5.8 24-4.8 24.6l328.8 186.8c22.6 12.4 45.8 18.4 70.8 18.4s48.2-6 71.3-18.6l313.6-179c0.7-0.2 3.2-86.9 3.3-99.4z" fill="#FFFFFF" /><path d="M904.1 698.1c0.1-0.6 0.4-1.2 0.4-1.8l4.1-345.1c0-11.6-9.4-21-21-21s-21 9.4-21 21l-4.1 324.9c0 7.2-3.8 13.9-10 17.6L570.1 860.8c-18.8 10.8-37.6 16.1-59.1 16.1s-40.3-5.4-59.1-16.1L170.3 694.2c-6.2-3.7-10.1-10.4-10.1-17.6l-4.1-326.7c0-11.6-9.4-21-21-21s-21 9.4-21 21l4.1 346.4c0 4.6 1.8 8.6 4.2 12 0.5 0.7 0.9 1.5 1.4 2.1 0.6 0.6 1.2 1.1 1.8 1.6 1 0.9 1.8 2 3.1 2.7l303.8 179.8c25 14.3 50.7 21.2 78.4 21.2s53.4-6.9 78.9-21.5l301.7-178.6c0.3-0.1 0.5-0.3 0.8-0.5l2.6-1.6c0.4-0.2 0.6-0.6 1-0.9 1.2-0.9 2.3-1.8 3.2-2.9 1.2-1.3 2.1-2.7 2.9-4.3 0.3-0.6 0.7-1.2 0.9-1.9 0.8-1.6 1.1-3.4 1.2-5.4z" fill="#3259CE" /><path d="M149.4 523.5m-17 0a17 17 0 1 0 34 0 17 17 0 1 0-34 0Z" fill="#FFFFFF" /><path d="M871.5 532.9m-17 0a17 17 0 1 0 34 0 17 17 0 1 0-34 0Z" fill="#FFFFFF" /><path d="M158.7 548.4L140.4 538l18.3-1.2 2.2 8.5zM863.9 557.1l16.9-10-8.4-8.5-14.3 5.8 0.4 9.4z" fill="#FFFFFF" /></svg>