<?xml version="1.0" standalone="no"?><!DOCTYPE svg PUBLIC "-//W3C//DTD SVG 1.1//EN" "http://www.w3.org/Graphics/SVG/1.1/DTD/svg11.dtd"><svg class="icon" width="200px" height="200.00px" viewBox="0 0 1024 1024" version="1.1" xmlns="http://www.w3.org/2000/svg"><path d="M976 992H467.2V515.2c0-70.4 57.6-128 128-128H848c70.4 0 128 57.6 128 128V992z" fill="#E1E1DF" /><path d="M593.6 992H48V160c0-70.4 57.6-128 128-128h289.6c70.4 0 128 57.6 128 128v832z" fill="#4E8DF6" /><path d="M225.6 337.6h-8c-17.6 0-32-14.4-32-32V192c0-17.6 14.4-32 32-32h8c17.6 0 32 14.4 32 32v113.6c0 17.6-14.4 32-32 32z" fill="#2166CC" /><path d="M872 633.6h-76.8c-9.6 0-16-8-16-16v-75.2c0-8 6.4-16 16-16h76.8c8 0 16 8 16 16v75.2c0 8-8 16-16 16zM712 633.6h-76.8c-8 0-16-8-16-16v-75.2c0-8 8-16 16-16h76.8c8 0 16 8 16 16v75.2c0 8-6.4 16-16 16zM872 804.8h-76.8c-9.6 0-16-8-16-16v-75.2c0-8 6.4-16 16-16h76.8c8 0 16 8 16 16v75.2c0 8-8 16-16 16zM712 804.8h-76.8c-8 0-16-8-16-16v-75.2c0-8 8-16 16-16h76.8c8 0 16 8 16 16v75.2c0 8-6.4 16-16 16zM436.8 515.2h-76.8c-9.6 0-16-6.4-16-16v-75.2c0-8 6.4-16 16-16h76.8c9.6 0 16 8 16 16v75.2c0 9.6-6.4 16-16 16zM278.4 515.2h-76.8c-8 0-16-6.4-16-16v-75.2c0-8 8-16 16-16h76.8c8 0 16 8 16 16v75.2c0 9.6-8 16-16 16zM436.8 686.4h-76.8c-9.6 0-16-8-16-16v-75.2c0-8 6.4-16 16-16h76.8c9.6 0 16 8 16 16v75.2c0 9.6-6.4 16-16 16zM278.4 686.4h-76.8c-8 0-16-8-16-16v-75.2c0-8 8-16 16-16h76.8c8 0 16 8 16 16v75.2c0 9.6-8 16-16 16z" fill="#FFFFFF" /></svg>