<?xml version="1.0" standalone="no"?><!DOCTYPE svg PUBLIC "-//W3C//DTD SVG 1.1//EN" "http://www.w3.org/Graphics/SVG/1.1/DTD/svg11.dtd"><svg t="1590569364210" class="icon" viewBox="0 0 1024 1024" version="1.1" xmlns="http://www.w3.org/2000/svg" p-id="19547" xmlns:xlink="http://www.w3.org/1999/xlink" width="200" height="200"><defs><style type="text/css"></style></defs><path d="M502.528 1023.616c-16.384 0-32.064-5.184-45.312-14.848L242.56 850.88a484.096 484.096 0 0 1-196.544-388.48v-264.32c0-33.28 21.248-62.528 52.928-72.64L471.232 4.992a101.76 101.76 0 0 1 62.656 0l372.224 120.448c31.616 10.176 52.928 39.36 52.928 72.64v264.32a483.776 483.776 0 0 1-196.544 388.48L547.84 1008.768a76.48 76.48 0 0 1-45.312 14.848z m0-972.928a50.304 50.304 0 0 0-15.744 2.496L114.496 173.632a25.6 25.6 0 0 0-17.728 24.448v264.32a432.64 432.64 0 0 0 175.872 347.584l214.72 157.888a25.92 25.92 0 0 0 30.464 0l214.592-157.888a432.832 432.832 0 0 0 175.936-347.584v-264.32a25.472 25.472 0 0 0-17.728-24.384L518.272 53.184a52.928 52.928 0 0 0-15.744-2.496z" fill="#ffffff" p-id="19548"></path><path d="M730.752 435.712H274.24a25.344 25.344 0 1 1 0-50.688h456.512c14.08 0 25.344 11.328 25.344 25.344a25.28 25.28 0 0 1-25.344 25.344z" fill="#ffffff" p-id="19549"></path><path d="M502.528 740.032a25.344 25.344 0 0 1-25.344-25.344V207.424a25.344 25.344 0 1 1 50.688 0v507.264a25.216 25.216 0 0 1-25.344 25.344z" fill="#ffffff" p-id="19550"></path></svg>